<svg xmlns="http://www.w3.org/2000/svg" viewBox="0 0 195.49 108.1"><g id="圖層_1" data-name="圖層 1"><path d="M86.41,73.39l-8.9-13,4.2,17a5.26,5.26,0,0,1-4.9,6.3H65v21.9a5.12,5.12,0,0,1-5.1,5.1h-6.7a5.12,5.12,0,0,1-5.1-5.1V83.69H36.31a5.12,5.12,0,0,1-5.1-5.1,5,5,0,0,1,.2-1.2l10.1-40.5a5,5,0,0,1,4.9-3.8h2.4a19,19,0,0,0,15.5,0h2.9c1.6-.2,3.2.6,4.8,2.9l20.7,31.3C95.91,72,89.41,77.89,86.41,73.39Z" transform="translate(-19.82 -2.64)"/><path d="M48.51,35.39,27.31,9.59c-3.6-4.2-9.8,1.3-6.6,5.3l21.5,26.2C45.31,44.79,51.71,39.29,48.51,35.39Z" transform="translate(-19.82 -2.64)"/><path d="M56.71,2.69a13.5,13.5,0,1,0,13.5,13.5A13.44,13.44,0,0,0,56.71,2.69Z" transform="translate(-19.82 -2.64)"/></g><g id="圖層_2" data-name="圖層 2"><path d="M195,29.64c17.7-.3,17.7-26.7,0-27C177.31,2.94,177.31,29.34,195,29.64Z" transform="translate(-19.82 -2.64)"/><path d="M189.31,36,172.71,7c-2.8-4.8-9.9-.3-7.3,4.1l16.8,29.4C184.51,44.74,191.71,40.34,189.31,36Z" transform="translate(-19.82 -2.64)"/><path d="M215.31,43.24v28.7c0,5.5-8.4,5.2-8.4,0v5h0v28.7a5.12,5.12,0,0,1-5.1,5.1h-13.5a5.12,5.12,0,0,1-5.1-5.1V33.24a27.73,27.73,0,0,1,4.1-.1,19,19,0,0,0,15.5,0h2.4c.6,0,1.1.1,1.7.1v.1A10,10,0,0,1,215.31,43.24Z" transform="translate(-19.82 -2.64)"/></g></svg>