<?xml version="1.0" encoding="utf-8"?>
<!-- Generator: Adobe Illustrator 25.0.1, SVG Export Plug-In . SVG Version: 6.00 Build 0)  -->
<svg version="1.1" id="圖層_1" xmlns="http://www.w3.org/2000/svg" xmlns:xlink="http://www.w3.org/1999/xlink" x="0px" y="0px"
	 viewBox="0 0 50.5 108.1" style="enable-background:new 0 0 50.5 108.1;" xml:space="preserve">
<g id="圖層_2_1_">
	<path d="M30.2,27c17.7-0.3,17.7-26.7,0-27C12.5,0.3,12.5,26.7,30.2,27z"/>
	<path d="M24.5,33.4L7.9,4.4C5.1-0.4-2,4.1,0.6,8.5l16.8,29.4C19.7,42.1,26.9,37.7,24.5,33.4z"/>
	<path d="M50.5,40.6v28.7c0,5.5-8.4,5.2-8.4,0v5l0,0V103c0,2.8-2.3,5.1-5.1,5.1H23.5c-2.8,0-5.1-2.3-5.1-5.1V30.6
		c1.4-0.1,2.7-0.2,4.1-0.1c4.9,2.2,10.6,2.2,15.5,0h2.4c0.6,0,1.1,0.1,1.7,0.1v0.1C46.9,31.5,50.5,35.7,50.5,40.6z"/>
</g>
</svg>
