<?xml version="1.0" encoding="utf-8"?>
<!-- Generator: Adobe Illustrator 25.0.1, SVG Export Plug-In . SVG Version: 6.00 Build 0)  -->
<svg version="1.1" id="圖層_1" xmlns="http://www.w3.org/2000/svg" xmlns:xlink="http://www.w3.org/1999/xlink" x="0px" y="0px"
	 viewBox="0 0 73.8 108" style="enable-background:new 0 0 73.8 108;" xml:space="preserve">
<path d="M66.6,70.7l-8.9-13l4.2,17c0.6,2.8-1.3,5.6-4.1,6.2C57.5,81,57.3,81,57,81H45.2v21.9c0,2.8-2.3,5.1-5.1,5.1h-6.7
	c-2.8,0-5.1-2.3-5.1-5.1V81H16.5c-2.8,0-5.1-2.3-5.1-5.1c0-0.4,0.1-0.8,0.2-1.2l10.1-40.5c0.6-2.2,2.6-3.8,4.9-3.8H29
	c4.9,2.2,10.6,2.2,15.5,0h2.9c1.6-0.2,3.2,0.6,4.8,2.9l20.7,31.3C76.1,69.3,69.6,75.2,66.6,70.7z"/>
<path d="M28.7,32.7L7.5,6.9c-3.6-4.2-9.8,1.3-6.6,5.3l21.5,26.2C25.5,42.1,31.9,36.6,28.7,32.7z"/>
<path d="M36.9,0c-7.5,0-13.5,6-13.5,13.5S29.4,27,36.9,27s13.5-6,13.5-13.5C50.4,6.1,44.4,0,37,0C37,0,36.9,0,36.9,0z"/>
</svg>
